:version 1.10
:name ASF
:units
  mass 1
  length 1
  angle deg
:documentation
  ASF file generated by Kaydara
:root
  axis xyz
  order  tx ty tz rx ry rz
  position 0 0 0
  orientation 0 0 0
:bonedata
  begin
    id 1
    name RightUpLegDummy
    direction -0.718183 -0.695806 0.00816078
    length 4.904
    axis 0 0 0 xyz
  end
  begin
    id 2
    name RightUpLeg
    direction 3.53989e-006 -0.995788 0.0916897
    length 17.4976
    axis -3.49089 -0.000906621 0.000287158 xyz
    dof rx ry rz
  end
  begin
    id 3
    name RightLeg
    direction 0.00371093 -0.995096 -0.0988418
    length 16.5821
    axis 3.68512 0.0193738 -0.131023 xyz
    dof rx ry rz
  end
  begin
    id 4
    name RightFoot
    direction 0.000791514 -0.46099 0.887405
    length 3.77069
    axis 4.84075e-005 -0.120479 -0.188788 xyz
    dof rx ry rz
  end
  begin
    id 5
    name RightToes
    direction 0.00124746 -0.014064 0.9999
    length 3.85082
    axis 0.00048216 0.542163 -0.142577 xyz
    dof rx ry rz
  end
  begin
    id 6
    name SpineDummy
    direction 8.36599e-015 1 5.97571e-016
    length 4.6813
    axis 0 0 0 xyz
  end
  begin
    id 7
    name Spine
    direction -4.63632e-008 0.999988 0.00495137
    length 10.1015
    axis -0.00138897 0.000121419 3.25764e-006 xyz
    dof rx ry rz
  end
  begin
    id 8
    name Spine1
    direction 0 0 0
    length 0
    axis -0.00138896 0.000121452 2.39764e-006 xyz
    dof rx ry rz
  end
  begin
    id 9
    name HEadDummy
    direction -3.91456e-008 0.999999 0.00127422
    length 3.43865
    axis -0.00138896 0.000121452 2.39764e-006 xyz
  end
  begin
    id 10
    name HEad
    direction -0.0222688 0.980941 0.193023
    length 5.12695
    axis -0.00138895 0.000121452 2.39764e-006 xyz
    dof rx ry rz
  end
  begin
    id 11
    name LeftShoulder1Dummy
    direction 0.998891 -0.0402508 -0.0244456
    length 3.5433
    axis -0.00138896 0.000121452 2.39764e-006 xyz
  end
  begin
    id 12
    name LeftShoulder1
    direction 0.99951 -0.000327743 0.0313091
    length 4.05031
    axis -0.00138896 0.000121452 2.39764e-006 xyz
    dof rx ry rz
  end
  begin
    id 13
    name LeftArm
    direction 0.998561 -0.00100054 -0.0536182
    length 10.3537
    axis -23.1894 0.134784 0.96751 xyz
    dof rx ry rz
  end
  begin
    id 14
    name LeftForeArm
    direction 0.998903 0.00866434 0.046012
    length 8.70632
    axis -9.91835 -0.06569 -0.177792 xyz
    dof rx ry rz
  end
  begin
    id 15
    name LeftHand
    direction 0.992938 -0.0411636 0.11126
    length 5.32135
    axis -0.00960227 -0.00340091 0.185174 xyz
    dof rx ry rz
  end
  begin
    id 16
    name RightShoulderDummy
    direction -0.998891 -0.0402509 -0.0244414
    length 3.5433
    axis -0.00138896 0.000121452 2.39764e-006 xyz
  end
  begin
    id 17
    name RightShoulder
    direction -0.99951 -0.000327827 0.0313133
    length 4.05031
    axis 0.215806 0.000203644 -0.00680151 xyz
    dof rx ry rz
  end
  begin
    id 18
    name RightArm
    direction -0.998573 -0.000999583 -0.053403
    length 10.3947
    axis -23.2009 -0.134239 -0.9641 xyz
    dof rx ry rz
  end
  begin
    id 19
    name RightForeArm
    direction -0.998898 0.00868026 0.0461306
    length 8.68355
    axis -9.92322 0.0658061 0.178869 xyz
    dof rx ry rz
  end
  begin
    id 20
    name RightHand
    direction -0.992843 -0.0414603 0.112003
    length 5.28593
    axis -0.00960634 0.00330671 -0.185226 xyz
    dof rx ry rz
  end
  begin
    id 21
    name LeftUpLegDummy
    direction 0.718183 -0.695806 0.00816078
    length 4.904
    axis 0 0 0 xyz
  end
  begin
    id 22
    name LeftUpLeg
    direction -6.8115e-006 -0.995793 0.0916336
    length 17.4976
    axis -3.48766 0.00143441 -0.000523914 xyz
    dof rx ry rz
  end
  begin
    id 23
    name LeftLeg
    direction -0.00601357 -0.995091 -0.0987824
    length 16.5821
    axis 3.68177 -0.00654038 -0.00028478 xyz
    dof rx ry rz
  end
  begin
    id 24
    name LeftFoot
    direction -0.00417578 -0.460984 0.887399
    length 3.77069
    axis 1.87232e-006 4.66002e-005 -8.1837e-006 xyz
    dof rx ry rz
  end
  begin
    id 25
    name LeftToes
    direction 0.00818058 -0.00485161 0.999955
    length 3.85048
    axis 1.06246e-005 4.65855e-005 -8.18502e-006 xyz
    dof rx ry rz
  end
:hierarchy
  begin
    root RightUpLegDummy SpineDummy LeftUpLegDummy
    RightUpLegDummy RightUpLeg
    RightUpLeg RightLeg
    RightLeg RightFoot
    RightFoot RightToes
    SpineDummy Spine
    Spine Spine1
    Spine1 HEadDummy LeftShoulder1Dummy RightShoulderDummy
    HEadDummy HEad
    LeftShoulder1Dummy LeftShoulder1
    LeftShoulder1 LeftArm
    LeftArm LeftForeArm
    LeftForeArm LeftHand
    RightShoulderDummy RightShoulder
    RightShoulder RightArm
    RightArm RightForeArm
    RightForeArm RightHand
    LeftUpLegDummy LeftUpLeg
    LeftUpLeg LeftLeg
    LeftLeg LeftFoot
    LeftFoot LeftToes
  end

:SAMPLES-PER-SECOND 30
:FULLY-SPECIFIED
:DEGREES
21
root  -4.9051 40.1906 18.0536 178.993 16.1736 176.092
RightUpLeg  1.62762 -6.54483 -6.38091
RightLeg  7.21486 -6.56167 -2.71443
RightFoot  -6.78661 -0.332669 7.18494
RightToes  -1.74624e-010 0 -3.6325e-017
Spine  -10.8033 -0.636825 -8.51978
Spine1  22.4125 -1.27687 3.92322
HEad  -1.92638 32.3625 -3.06468
LeftShoulder1  2.34557 -5.35903 -20.0176
LeftArm  18.1596 14.7543 -53.2376
LeftForeArm  35.6095 -77.3639 -101.513
LeftHand  0.077216 5.82657 21.9961
RightShoulder  1.31936 1.77215 18.5557
RightArm  8.81117 -9.06899 58.8209
RightForeArm  0.291341 21.9162 5.55203
RightHand  -0.426797 2.05406 -6.83817
LeftUpLeg  -0.729528 -1.07764 -3.87685
LeftLeg  1.21772 12.7038 -0.972481
LeftFoot  -1.50541 -0.161147 2.03248
LeftToes  -5.82109e-011 1.10366e-010 -8.03124e-011
22
root  -4.92437 40.1885 18.0748 178.98 15.9565 176.029
RightUpLeg  1.58009 -6.61001 -6.47624
RightLeg  7.31413 -6.68519 -2.72747
RightFoot  -6.82686 -0.334361 7.2335
RightToes  -1.74624e-010 0 -3.6325e-017
Spine  -10.6606 -0.587977 -8.35848
Spine1  22.2823 -1.24835 3.94228
HEad  -2.84494 37.4115 -3.81444
LeftShoulder1  2.38144 -5.45009 -20.1588
LeftArm  18.3743 14.4772 -53.1396
LeftForeArm  35.669 -77.3596 -101.589
LeftHand  0.106864 5.9909 21.7505
RightShoulder  1.31993 1.78382 18.5072
RightArm  8.47119 -9.29473 58.7558
RightForeArm  0.579893 21.6337 5.70755
RightHand  -0.427787 2.14123 -6.78026
LeftUpLeg  -0.776184 -1.17883 -3.98642
LeftLeg  1.19971 12.6084 -0.957802
LeftFoot  -1.4484 -0.162152 2.04362
LeftToes  -5.82109e-011 1.10366e-010 -8.03124e-011
23
root  -4.94241 40.1864 18.095 178.967 15.6573 175.998
RightUpLeg  1.58171 -6.67278 -6.54154
RightLeg  7.37993 -6.90463 -2.73388
RightFoot  -6.84888 -0.336455 7.28496
RightToes  -1.74624e-010 0 -3.6325e-017
Spine  -10.555 -0.546851 -8.15083
Spine1  22.2369 -1.22335 3.93748
HEad  -3.63073 41.0687 -4.47821
LeftShoulder1  2.404 -5.47251 -20.3571
LeftArm  18.5506 14.1286 -53.0141
LeftForeArm  36.0153 -77.3476 -101.96
LeftHand  0.105404 5.98109 21.8207
RightShoulder  1.32413 1.82745 18.3702
RightArm  7.85598 -9.55327 58.761
RightForeArm  1.12222 21.3444 5.86739
RightHand  -0.394401 2.06421 -6.3234
LeftUpLeg  -0.8346 -1.27897 -4.07008
LeftLeg  1.23185 12.4219 -0.916466
LeftFoot  -1.41388 -0.161696 2.03199
LeftToes  -5.82109e-011 1.10366e-010 -8.03124e-011
24
root  -4.95461 40.1848 18.1134 178.976 15.3729 176.014
RightUpLeg  1.59611 -6.6979 -6.54102
RightLeg  7.40382 -7.15703 -2.74
RightFoot  -6.84502 -0.33642 7.30554
RightToes  -1.74624e-010 0 -3.6325e-017
Spine  -10.5028 -0.505085 -7.82516
Spine1  22.2025 -1.13107 3.74027
HEad  -4.14473 43.3384 -4.88837
LeftShoulder1  2.38128 -5.40913 -20.2875
LeftArm  18.5465 13.9171 -53.1593
LeftForeArm  36.3359 -77.3374 -102.261
LeftHand  0.0894454 5.89066 22.0003
RightShoulder  1.34454 1.91681 18.3326
RightArm  6.79154 -9.68811 58.7112
RightForeArm  1.96628 20.7404 6.25722
RightHand  -0.359491 1.8716 -5.92102
LeftUpLeg  -0.921914 -1.32103 -4.08367
LeftLeg  1.318 12.1774 -0.884173
LeftFoot  -1.40911 -0.162129 2.03415
LeftToes  -5.82109e-011 1.10366e-010 -8.03124e-011
25
root  -4.96135 40.1839 18.1316 178.993 15.1251 176.033
RightUpLeg  1.59243 -6.70286 -6.52015
RightLeg  7.43223 -7.3873 -2.75254
RightFoot  -6.8434 -0.334431 7.30362
RightToes  -1.74624e-010 0 -3.6325e-017
Spine  -10.5135 -0.448359 -7.4551
Spine1  22.1892 -0.960787 3.38358
HEad  -4.48135 44.5826 -5.06367
LeftShoulder1  2.34521 -5.3595 -20.012
LeftArm  18.3465 13.8897 -53.5108
LeftForeArm  36.4718 -77.3336 -102.351
LeftHand  0.0840865 5.86122 22.0442
RightShoulder  1.37238 2.00567 18.446
RightArm  5.10423 -9.61594 58.5365
RightForeArm  3.26756 19.7131 6.99369
RightHand  -0.357483 1.70385 -6.0136
LeftUpLeg  -1.0104 -1.32561 -4.07019
LeftLeg  1.39438 11.9308 -0.880239
LeftFoot  -1.40135 -0.164202 2.06181
LeftToes  -5.82109e-011 1.10366e-010 -8.03124e-011
26
root  -4.96497 40.183 18.1452 178.958 14.932 176.011
RightUpLeg  1.61255 -6.72887 -6.54974
RightLeg  7.49891 -7.52908 -2.76868
RightFoot  -6.87766 -0.332294 7.31503
RightToes  -1.74624e-010 0 -3.6325e-017
Spine  -10.5847 -0.353317 -7.22987
Spine1  22.2886 -0.780832 3.14651
HEad  -4.83336 45.1126 -5.18497
LeftShoulder1  2.33989 -5.36122 -19.9419
LeftArm  18.1092 13.9184 -53.6882
LeftForeArm  36.5735 -77.3319 -102.394
LeftHand  0.0732738 5.80539 22.0029
RightShoulder  1.38499 2.0394 18.5281
RightArm  3.12076 -9.47222 58.3355
RightForeArm  5.05951 18.6501 7.75962
RightHand  -0.371912 1.62725 -6.31143
LeftUpLeg  -1.00589 -1.33477 -4.09421
LeftLeg  1.39304 11.7542 -0.899908
LeftFoot  -1.37238 -0.166724 2.09648
LeftToes  -5.82109e-011 1.10366e-010 -8.03124e-011
27
root  -4.96637 40.1815 18.1505 178.837 14.8021 175.958
RightUpLeg  1.71124 -6.78208 -6.62929
RightLeg  7.58411 -7.57498 -2.78193
RightFoot  -6.9435 -0.330087 7.34911
RightToes  -1.74624e-010 0 -3.6325e-017
Spine  -10.6466 -0.219552 -7.20628
Spine1  22.4635 -0.643895 3.16859
HEad  -5.25554 45.0803 -5.35267
LeftShoulder1  2.36054 -5.3578 -20.2028
LeftArm  17.9506 13.9582 -53.5543
LeftForeArm  36.6917 -77.3265 -102.467
LeftHand  0.0431095 5.64629 22.0066
RightShoulder  1.37496 2.01246 18.4633
RightArm  1.58155 -9.42344 58.1939
RightForeArm  6.9386 17.9913 8.17336
RightHand  -0.373809 1.65778 -6.3183
LeftUpLeg  -0.875337 -1.3447 -4.15061
LeftLeg  1.34289 11.6507 -0.92962
LeftFoot  -1.3484 -0.168933 2.12628
LeftToes  -5.82109e-011 1.10366e-010 -8.03124e-011
28
root  -4.96701 40.1787 18.1565 178.692 14.6287 175.922
RightUpLeg  1.85505 -6.84128 -6.69563
RightLeg  7.6596 -7.66343 -2.78921
RightFoot  -7.00443 -0.328004 7.37397
RightToes  -1.74624e-010 0 -3.6325e-017
Spine  -10.5795 -0.109686 -7.24181
Spine1  22.5069 -0.559017 3.25852
HEad  -5.64337 44.7421 -5.47452
LeftShoulder1  2.37338 -5.3284 -20.4539
LeftArm  17.8426 14.1158 -53.3659
LeftForeArm  36.6062 -77.321 -102.511
LeftHand  0.037579 5.61831 21.9507
RightShoulder  1.35624 1.9522 18.3907
RightArm  0.739216 -9.44123 58.0307
RightForeArm  8.37453 17.7045 8.3055
RightHand  -0.367899 1.77858 -6.12538
LeftUpLeg  -0.746513 -1.35233 -4.1935
LeftLeg  1.35669 11.5009 -0.939722
LeftFoot  -1.35313 -0.170947 2.15312
LeftToes  -5.82109e-011 1.10366e-010 -8.03124e-011
29
root  -4.96963 40.175 18.176 178.617 14.2613 175.928
RightUpLeg  1.96278 -6.90492 -6.71555
RightLeg  7.72259 -7.94999 -2.78262
RightFoot  -7.03787 -0.324788 7.36635
RightToes  -1.74624e-010 0 -3.6325e-017
Spine  -10.3691 -0.102914 -7.24173
Spine1  22.3398 -0.555296 3.2535
HEad  -5.9098 44.4729 -5.45155
LeftShoulder1  2.37108 -5.31164 -20.4707
LeftArm  17.7791 14.4064 -53.3117
LeftForeArm  36.2795 -77.3159 -102.544
LeftHand  0.0875911 5.89 21.7064
RightShoulder  1.3412 1.88542 18.423
RightArm  0.347414 -9.39281 57.7979
RightForeArm  8.9512 17.5436 8.39388
RightHand  -0.368597 1.86122 -6.07321
LeftUpLeg  -0.771706 -1.39824 -4.2155
LeftLeg  1.49864 11.1877 -0.892985
LeftFoot  -1.36918 -0.17239 2.17113
LeftToes  -5.82109e-011 1.10366e-010 -8.03124e-011
30
root  -4.97436 40.1715 18.2059 178.623 13.7366 175.958
RightUpLeg  2.0161 -6.9811 -6.71271
RightLeg  7.77075 -8.38739 -2.7546
RightFoot  -7.05446 -0.322108 7.35316
RightToes  -1.74624e-010 0 -3.6325e-017
Spine  -10.1748 -0.19617 -7.28038
Spine1  22.1617 -0.665644 3.27514
HEad  -6.0625 44.4123 -5.34144
LeftShoulder1  2.37222 -5.3062 -20.4681
LeftArm  17.8438 14.6764 -53.2586
LeftForeArm  36.1778 -77.3106 -102.643
LeftHand  0.123068 6.08611 21.5211
RightShoulder  1.32989 1.84022 18.4236
RightArm  0.210289 -9.26523 57.6394
RightForeArm  8.72264 17.5086 8.42672
RightHand  -0.36554 1.79973 -6.07065
LeftUpLeg  -0.933231 -1.49904 -4.23932
LeftLeg  1.70778 10.7641 -0.794311
LeftFoot  -1.3707 -0.172616 2.1703
LeftToes  -5.82109e-011 1.10366e-010 -8.03124e-011
31
root  -4.9778 40.1689 18.2308 178.645 13.2792 175.988
RightUpLeg  2.0572 -7.04518 -6.70768
RightLeg  7.79301 -8.77304 -2.72377
RightFoot  -7.07016 -0.322103 7.37321
RightToes  -1.74624e-010 0 -3.6325e-017
Spine  -10.1087 -0.301314 -7.38339
Spine1  22.1122 -0.822727 3.40762
HEad  -6.08852 44.3895 -5.2122
LeftShoulder1  2.36963 -5.26433 -20.6198
LeftArm  18.043 14.8694 -53.0965
LeftForeArm  36.6983 -77.3033 -102.859
LeftHand  0.0666899 5.77744 21.8034
RightShoulder  1.32316 1.83762 18.293
RightArm  0.296689 -9.17008 57.6542
RightForeArm  8.23487 17.704 8.28332
RightHand  -0.348493 1.69334 -5.87395
LeftUpLeg  -1.0855 -1.59734 -4.26253
LeftLeg  1.8798 10.4027 -0.700262
LeftFoot  -1.36193 -0.172089 2.15785
LeftToes  -5.82109e-011 1.10366e-010 -8.03124e-011
32
root  -4.97833 40.1669 18.2446 178.637 13.0195 176.005
RightUpLeg  2.10409 -7.06398 -6.69488
RightLeg  7.80428 -9.00703 -2.72709
RightFoot  -7.08541 -0.323686 7.41229
RightToes  -1.74624e-010 0 -3.6325e-017
Spine  -10.047 -0.351966 -7.40547
Spine1  22.004 -0.890195 3.44611
HEad  -5.92216 44.2814 -4.99899
LeftShoulder1  2.3555 -5.18499 -20.7066
LeftArm  18.2583 15.1162 -52.9909
LeftForeArm  37.4545 -77.2885 -103.186
LeftHand  -0.0262694 5.2797 22.4441
RightShoulder  1.32479 1.85609 18.2187
RightArm  0.562353 -9.16125 57.7001
RightForeArm  7.90276 18.0208 8.03502
RightHand  -0.33571 1.7012 -5.65911
LeftUpLeg  -1.14769 -1.64478 -4.27334
LeftLeg  1.97636 10.1931 -0.65098
LeftFoot  -1.35664 -0.17188 2.15047
LeftToes  -5.82109e-011 1.10366e-010 -8.03124e-011
33
root  -4.97807 40.1652 18.2535 178.597 12.8878 176.001
RightUpLeg  2.14263 -7.05122 -6.68341
RightLeg  7.84217 -9.14135 -2.77081
RightFoot  -7.10003 -0.323659 7.42345
RightToes  -1.74624e-010 0 -3.6325e-017
Spine  -9.84264 -0.349645 -7.2489
Spine1  21.663 -0.818527 3.22828
HEad  -5.63737 44.1713 -4.68863
LeftShoulder1  2.32607 -5.12601 -20.5402
LeftArm  18.4247 15.4418 -53.0923
LeftForeArm  37.6402 -77.2748 -103.46
LeftHand  -0.0270325 5.27588 22.7755
RightShoulder  1.32843 1.84566 18.37
RightArm  0.885962 -9.16054 57.6268
RightForeArm  7.63305 18.2497 7.86301
RightHand  -0.345343 1.78392 -5.75562
LeftUpLeg  -1.14255 -1.66964 -4.2905
LeftLeg  2.01788 10.0946 -0.629861
LeftFoot  -1.35055 -0.172054 2.14916
LeftToes  -5.82109e-011 1.10366e-010 -8.03124e-011
34
root  -4.97753 40.1638 18.2597 178.525 12.8376 175.972
RightUpLeg  2.18033 -7.04324 -6.70032
RightLeg  7.91017 -9.18365 -2.82159
RightFoot  -7.12269 -0.321726 7.40631
RightToes  -1.74624e-010 0 -3.6325e-017
Spine  -9.61781 -0.296976 -7.01612
Spine1  21.3165 -0.668957 2.92975
HEad  -5.50554 44.1209 -4.47987
LeftShoulder1  2.30948 -5.12355 -20.3427
LeftArm  18.5805 15.6419 -53.2713
LeftForeArm  37.0967 -77.2757 -103.394
LeftHand  0.0667423 5.76178 22.4449
RightShoulder  1.32725 1.79972 18.5737
RightArm  1.19267 -9.0746 57.5312
RightForeArm  7.20101 18.367 7.79557
RightHand  -0.363821 1.78039 -6.05844
LeftUpLeg  -1.08016 -1.7007 -4.33212
LeftLeg  2.01312 10.0867 -0.614653
LeftFoot  -1.33927 -0.171955 2.14377
LeftToes  -5.82109e-011 1.10366e-010 -8.03124e-011
35
root  -4.97617 40.1636 18.2583 178.418 12.9492 175.932
RightUpLeg  2.23668 -7.03477 -6.73863
RightLeg  7.967 -9.06461 -2.85863
RightFoot  -7.1543 -0.320869 7.40798
RightToes  -1.74624e-010 0 -3.6325e-017
Spine  -9.61798 -0.171875 -6.82785
Spine1  21.3065 -0.490998 2.78216
HEad  -5.67554 44.0549 -4.54567
LeftShoulder1  2.32243 -5.16025 -20.3812
LeftArm  18.7227 15.5947 -53.3493
LeftForeArm  36.4944 -77.2935 -103.012
LeftHand  0.127483 6.09483 21.8868
RightShoulder  1.31845 1.7642 18.5778
RightArm  1.59759 -8.91625 57.5849
RightForeArm  6.60831 18.5234 7.70607
RightHand  -0.366081 1.68624 -6.16771
LeftUpLeg  -0.939505 -1.70198 -4.37191
LeftLeg  1.95518 10.2101 -0.620901
LeftFoot  -1.33585 -0.171596 2.1345
LeftToes  -5.82109e-011 1.10366e-010 -8.03124e-011
